<svg width="31" height="30" viewBox="0 0 31 30" fill="none" xmlns="http://www.w3.org/2000/svg">
<path d="M30.0781 25.8333C30.0781 28.135 28.2083 30 25.9006 30H4.17752C1.87069 30 0 28.135 0 25.8333V4.16667C0 1.865 1.87069 0 4.17752 0H25.9006C28.2083 0 30.0781 1.865 30.0781 4.16667V25.8333Z" fill="#036A9C"/>
<path d="M16.7861 16.1392H19.585L20.0244 13.3274H16.7855V11.7906C16.7855 10.6225 17.1715 9.58668 18.2763 9.58668H20.0518V7.13285C19.7398 7.0912 19.0801 7 17.8335 7C15.2304 7 13.7043 8.35948 13.7043 11.4567V13.3274H11.0283V16.1392H13.7043V23.8677C14.2342 23.9465 14.771 24 15.322 24C15.8201 24 16.3062 23.955 16.7861 23.8908V16.1392Z" fill="#F3F2F2"/>
</svg>
