<svg width="31" height="30" viewBox="0 0 31 30" fill="none" xmlns="http://www.w3.org/2000/svg">
<path d="M30.0781 25.8333C30.0781 28.135 28.2083 30 25.9006 30H4.17752C1.87069 30 0 28.135 0 25.8333V4.16667C0 1.865 1.87069 0 4.17752 0H25.9006C28.2083 0 30.0781 1.865 30.0781 4.16667V25.8333Z" fill="#036A9C"/>
<path d="M19.7272 5H10.4338C7.41348 5 5.0127 7.39455 5.0127 10.4071V19.6763C5.0127 22.6888 7.41348 25.0833 10.4338 25.0833H19.7272C22.7475 25.0833 25.1483 22.6888 25.1483 19.6763V10.4071C25.1483 7.39455 22.7475 5 19.7272 5Z" stroke="#F3F2F2" stroke-width="1.54487" stroke-miterlimit="10" stroke-linecap="round" stroke-linejoin="round"/>
<path d="M20.502 8.47559C20.7173 8.47559 20.8906 8.64995 20.8906 8.8623C20.8906 9.07465 20.7173 9.24805 20.502 9.24805C20.2866 9.24803 20.1133 9.07464 20.1133 8.8623C20.1133 8.64996 20.2866 8.4756 20.502 8.47559Z" fill="#010101" stroke="#F3F2F2" stroke-width="0.772436"/>
<path d="M15.0803 19.6765C17.6466 19.6765 19.727 17.6015 19.727 15.0418C19.727 12.4822 17.6466 10.4072 15.0803 10.4072C12.514 10.4072 10.4336 12.4822 10.4336 15.0418C10.4336 17.6015 12.514 19.6765 15.0803 19.6765Z" stroke="#F3F2F2" stroke-width="1.54487" stroke-miterlimit="10" stroke-linecap="round" stroke-linejoin="round"/>
</svg>
