<svg width="31" height="30" viewBox="0 0 31 30" fill="none" xmlns="http://www.w3.org/2000/svg">
<path d="M30.0781 25.8333C30.0781 28.135 28.2083 30 25.9006 30H4.17752C1.87069 30 0 28.135 0 25.8333V4.16667C0 1.865 1.87069 0 4.17752 0H25.9006C28.2083 0 30.0781 1.865 30.0781 4.16667V25.8333Z" fill="#036A9C"/>
<path d="M7.01855 11.6667H10.3606V23H7.01855V11.6667ZM8.67954 10.3333H8.66082C7.66356 10.3333 7.01855 9.592 7.01855 8.666C7.01855 7.72 7.68362 7 8.69892 7C9.71556 7 10.3419 7.72 10.3606 8.666C10.3606 9.59133 9.71556 10.3333 8.67954 10.3333ZM23.0602 23H19.7182V16.934C19.7182 15.4687 18.8994 14.4687 17.5847 14.4687C16.5814 14.4687 16.0386 15.1433 15.7753 15.7953C15.679 16.0287 15.7078 16.674 15.7078 17V23H12.3658V11.6667H15.7078V13.4107C16.1897 12.6667 16.9443 11.6667 18.8747 11.6667C21.2662 11.6667 23.0596 13.1667 23.0596 16.516L23.0602 23Z" fill="#F3F2F2"/>
</svg>
