<svg width="31" height="30" viewBox="0 0 31 30" fill="none" xmlns="http://www.w3.org/2000/svg">
<path d="M30.0781 25.8333C30.0781 28.135 28.2083 30 25.9006 30H4.17752C1.87069 30 0 28.135 0 25.8333V4.16667C0 1.865 1.87069 0 4.17752 0H25.9006C28.2083 0 30.0781 1.865 30.0781 4.16667V25.8333Z" fill="#036A9C"/>
<path d="M15.5439 4.63867C18.1874 4.63931 20.6671 5.66583 22.5352 7.53027C24.4031 9.39458 25.4293 11.8692 25.4287 14.5039C25.4268 19.9375 20.992 24.3621 15.541 24.3623H15.5371C13.7615 24.3617 12.0204 23.8863 10.5039 22.9883V22.9873L10.1191 22.7598L9.88965 22.625L9.63184 22.6924L6.71777 23.4541L7.48926 20.6484L7.56348 20.376L7.41309 20.1377L7.16211 19.7402C6.17312 18.171 5.65084 16.3588 5.65137 14.4961C5.65379 9.23281 9.81602 4.91577 15.0361 4.65137L15.5439 4.63867Z" stroke="#F3F2F2" stroke-width="1.27749"/>
<path fill-rule="evenodd" clip-rule="evenodd" d="M12.3743 9.21601C12.1374 8.69038 11.8879 8.67973 11.6618 8.67042C11.477 8.66243 11.2662 8.6631 11.0554 8.6631C10.8446 8.6631 10.5017 8.74228 10.2116 9.05832C9.92137 9.37437 9.10352 10.1375 9.10352 11.6905C9.10352 13.2434 10.2376 14.7445 10.3957 14.9547C10.5538 15.165 12.5851 18.4538 15.8018 19.7193C18.4748 20.7706 19.0191 20.5617 19.5995 20.5091C20.1799 20.4566 21.472 19.746 21.7355 19.0087C21.999 18.2715 21.999 17.6401 21.9203 17.5084C21.8409 17.3766 21.6301 17.2981 21.3139 17.1397C20.9977 16.9814 19.4414 16.2182 19.1512 16.1131C18.861 16.008 18.6502 15.9554 18.4388 16.2715C18.228 16.5868 17.6216 17.2981 17.4368 17.5084C17.252 17.7193 17.0672 17.7459 16.751 17.5875C16.4348 17.4292 15.4155 17.0965 14.2061 16.0213C13.2655 15.1849 12.6304 14.1516 12.4456 13.8356C12.2609 13.5202 12.4256 13.3492 12.5844 13.1915C12.7265 13.0498 12.9006 12.8229 13.0594 12.6386C13.2175 12.4543 13.2702 12.3226 13.3756 12.1123C13.481 11.9014 13.4283 11.7171 13.3489 11.5594C13.2708 11.401 12.6558 9.84012 12.3743 9.21601Z" fill="#F3F2F2"/>
</svg>
