<svg width="31" height="30" viewBox="0 0 31 30" fill="none" xmlns="http://www.w3.org/2000/svg">
<path d="M30.0781 25.8333C30.0781 28.135 28.2083 30 25.9006 30H4.17752C1.87069 30 0 28.135 0 25.8333V4.16667C0 1.865 1.87069 0 4.17752 0H25.9006C28.2083 0 30.0781 1.865 30.0781 4.16667V25.8333Z" fill="#036A9C"/>
<path d="M 21.034 7.000 h 2.714 l -5.930 6.777 6.976 9.223 L 19.333 23.000 l -4.278 -5.593 L 10.159 23.000 L 7.443 23.000 l 6.343 -7.249 L 7.094 7.000 L 12.695 7.000 l 3.867 5.113 z m -1.161 17.52 h 1.504 L 11.878 8.539 L 10.264 8.539 z" fill="#F3F2F2"/>
</svg>
