<svg width="68" height="73" viewBox="0 0 68 73" fill="none" xmlns="http://www.w3.org/2000/svg">
<path d="M52.0798 31.4487C51.7807 39.6221 50.318 46.0459 47.6966 50.7205C45.0704 55.395 41.0815 58.818 35.7344 60.9798L42.1169 71.5C51.1679 67.4703 57.8305 61.4776 62.1092 53.5226C65.191 47.7244 66.7344 38.2427 66.7344 25.0773V0.5H38.1658V31.4487H52.0798Z" fill="#0B9ECF" fill-opacity="0.2" stroke="#0B9ECF" stroke-opacity="0.6" stroke-miterlimit="10"/>
<path d="M17.0798 31.4487C16.7807 39.6221 15.318 46.0459 12.6966 50.7205C10.0704 55.395 6.08147 58.818 0.734375 60.9798L7.11685 71.5C16.1679 67.4703 22.8305 61.4776 27.1092 53.5226C30.191 47.7244 31.7344 38.2427 31.7344 25.0773V0.5H3.16582V31.4487H17.0798Z" fill="#0B9ECF" fill-opacity="0.2" stroke="#0B9ECF" stroke-opacity="0.6" stroke-miterlimit="10"/>
</svg>
