<svg width="46" height="49" viewBox="0 0 46 49" fill="none" xmlns="http://www.w3.org/2000/svg">
<path d="M24.1627 35.0999C24.2711 34.6666 24.2711 34.1249 24.2711 33.5833C24.2711 33.0416 24.2711 32.6083 24.1627 32.0666L27.1961 29.8999C27.5211 29.6833 27.6294 29.2499 27.4127 28.9249L24.4877 23.9416C24.2711 23.6166 23.9461 23.5083 23.6211 23.6166L20.2627 25.2416C19.5044 24.5916 18.6377 24.1583 17.6627 23.7249L17.3377 20.0416C17.3377 19.7166 17.0127 19.3916 16.6877 19.3916H10.9461C10.6211 19.3916 10.2961 19.7166 10.2961 20.0416L9.86272 23.8333C8.88772 24.1583 8.12939 24.6999 7.26272 25.3499L3.90439 23.8333C3.57939 23.7249 3.14606 23.8333 3.03772 24.1583L0.112723 29.1416C-0.103944 29.4666 0.00438935 29.8999 0.329389 30.1166L3.36272 32.2833C3.25439 32.7166 3.25439 33.2583 3.25439 33.7999C3.25439 34.3416 3.25439 34.7749 3.36272 35.3166L0.329389 37.4833C0.00438935 37.6999 -0.103944 38.1333 0.112723 38.4583L3.03772 43.4416C3.25439 43.7666 3.57939 43.8749 3.90439 43.7666L7.26272 42.2499C8.02106 42.8999 8.88772 43.3333 9.86272 43.7666L10.1877 47.4499C10.1877 47.7749 10.5127 48.0999 10.8377 48.0999H16.5794C16.9044 48.0999 17.2294 47.7749 17.2294 47.4499L17.5544 43.7666C18.5294 43.4416 19.2877 42.8999 20.1544 42.2499L23.5127 43.7666C23.8377 43.8749 24.2711 43.7666 24.3794 43.4416L27.3044 38.4583C27.5211 38.1333 27.4127 37.6999 27.0877 37.4833L24.1627 35.0999ZM13.7627 38.9999C10.7294 38.9999 8.34606 36.6166 8.34606 33.5833C8.34606 30.5499 10.7294 28.1666 13.7627 28.1666C16.7961 28.1666 19.1794 30.5499 19.1794 33.5833C19.1794 36.6166 16.7961 38.9999 13.7627 38.9999Z" fill="#0099CC"/>
<path d="M41.82 14.4083C41.9284 13.8667 41.9283 13.4333 41.9283 13C41.9283 12.5667 41.9284 12.1333 41.82 11.5917L44.5284 9.64167C44.8534 9.425 44.8533 9.1 44.745 8.775L42.0367 4.11667C41.82 3.79167 41.495 3.68333 41.17 3.9L38.0284 5.30833C37.27 4.76667 36.5117 4.33333 35.645 3.9L35.32 0.541667C35.4284 0.216667 35.2117 0 34.8867 0H29.5783C29.2533 0 28.9283 0.216667 28.9283 0.541667L28.6033 3.9C27.7367 4.225 26.9783 4.65833 26.22 5.30833L23.0783 3.9C22.7533 3.79167 22.4283 3.9 22.2117 4.11667L19.5033 8.775C19.2867 9.1 19.395 9.425 19.72 9.64167L22.4283 11.5917V13C22.4283 13.4333 22.4283 13.8667 22.5367 14.4083L19.8283 16.3583C19.5033 16.575 19.5033 16.9 19.6117 17.225L22.32 21.8833C22.5367 22.2083 22.8617 22.3167 23.1867 22.1L26.3283 20.6917C27.0867 21.2333 27.845 21.6667 28.7117 22.1L29.0367 25.4583C29.0367 25.7833 29.3617 26 29.6867 26H34.995C35.32 26 35.645 25.7833 35.645 25.4583L35.97 22.1C36.8367 21.775 37.595 21.3417 38.3533 20.6917L41.495 22.1C41.82 22.2083 42.145 22.1 42.3617 21.8833L45.07 17.225C45.2867 16.9 45.1784 16.575 44.8533 16.3583L41.82 14.4083ZM32.1783 18.4167C29.145 18.4167 26.7617 16.0333 26.7617 13C26.7617 9.96667 29.145 7.58333 32.1783 7.58333C35.2117 7.58333 37.595 9.96667 37.595 13C37.595 16.0333 35.2117 18.4167 32.1783 18.4167Z" fill="#FFA000"/>
</svg>
