<svg width="36" height="36" viewBox="0 0 36 36" fill="none" xmlns="http://www.w3.org/2000/svg">
<path d="M30.375 23.625H28.125C28.125 20.4491 28.125 15.651 16.7738 14.6205L16.9762 12.3795C30.375 13.5956 30.375 20.1195 30.375 23.625ZM19.0238 23.6205C5.625 22.4044 5.625 15.8805 5.625 12.375H7.875C7.875 15.5509 7.875 20.349 19.2262 21.3795L19.0238 23.6205Z" fill="white"/>
<path d="M25.8775 23.085C25.8775 17.8875 21.625 17.3025 18.205 16.83C14.4813 16.3125 12.3775 15.8625 12.3775 12.6562C12.3775 9.9675 15.2012 9.01125 17.6087 9.01125C20.2187 9.01125 22.2662 9.97875 23.875 11.97L25.63 10.5525C23.92 8.4375 21.7375 7.21125 19.1275 6.8625V3.375H16.8775V6.7725C12.805 7.02 10.1275 9.315 10.1275 12.645C10.1275 17.9662 14.4362 18.5625 17.9012 19.0463C21.5575 19.5525 23.6275 19.9913 23.6275 23.0737C23.6275 26.4825 20.1062 26.9888 18.0025 26.9888C14.1437 26.9888 12.5125 25.9088 11.005 24.03L9.25 25.4475C11.2413 27.9113 13.4462 29.0137 16.8775 29.205V32.625H19.1275V29.205C23.3237 28.8675 25.8775 26.5837 25.8775 23.085Z" fill="white"/>
</svg>
