<svg width="40" height="40" viewBox="0 0 40 40" fill="none" xmlns="http://www.w3.org/2000/svg">
<path d="M40 13.75H36.25V6.25C36.25 4.875 35.125 3.75 33.75 3.75H16.25C14.875 3.75 13.75 4.875 13.75 6.25V11.25H16.25V6.25H33.75V23.75H16.25V18.75H13.75V23.75C13.75 25.125 14.875 26.25 16.25 26.25H33.75C35.125 26.25 36.25 25.125 36.25 23.75V16.25H40V13.75Z" fill="white"/>
<path d="M26.25 21.25V16.25C26.25 14.875 25.125 13.75 23.75 13.75H6.25C4.875 13.75 3.75 14.875 3.75 16.25V23.75H0V26.25H3.75V33.75C3.75 35.125 4.875 36.25 6.25 36.25H23.75C25.125 36.25 26.25 35.125 26.25 33.75V28.75H23.75V33.75H6.25V16.25H23.75V21.25H26.25Z" fill="white"/>
</svg>
