<svg width="34" height="34" viewBox="0 0 34 34" fill="none" xmlns="http://www.w3.org/2000/svg">
<path fill-rule="evenodd" clip-rule="evenodd" d="M3.70395 11.3078C3.57276 11.2418 3.43508 11.1896 3.29312 11.152C3.14797 11.1388 3.00193 11.1388 2.85679 11.152C1.28712 10.9112 1.20212 11.0812 1.10437 11.3078C1.00662 11.5345 1.03354 11.8858 2.38929 12.5928C2.52529 12.6664 2.66695 12.7278 2.81429 12.7769C2.96917 12.7986 3.12454 12.7986 3.28037 12.7769C3.4362 12.7769 4.87695 12.7769 4.97612 12.3236C5.00445 12.2953 5.14612 11.985 3.70395 11.3078ZM6.53162 5.8225C6.53162 5.8225 7.64795 6.26167 7.94404 6.00667C8.24154 5.75167 7.7882 4.59283 7.77404 4.59283C7.73321 4.5066 7.67539 4.4295 7.60404 4.36617C7.52285 4.30881 7.43222 4.26613 7.33629 4.24008C6.21995 3.71592 6.03579 3.90008 5.92387 4.05592C5.81054 4.21175 5.6547 4.36758 6.19304 5.46975C6.22507 5.53742 6.26762 5.59958 6.31912 5.65392C6.37153 5.7304 6.44549 5.78816 6.53162 5.8225ZM17.1311 2.82625C17.5136 2.82625 17.9514 1.80908 17.9939 1.69575C18.0097 1.60197 18.0097 1.5062 17.9939 1.41242C18.008 1.31325 18.008 1.21456 17.9939 1.11633C17.583 0 17.3564 0 17.1311 0C16.9059 0 16.6792 0 16.3123 1.20133C16.2987 1.29529 16.2987 1.39071 16.3123 1.48467C16.2987 1.57862 16.2987 1.67404 16.3123 1.768C16.7359 2.99625 17.117 2.82625 17.1311 2.82625ZM25.5688 4.8195C25.6741 4.7705 25.77 4.70336 25.8521 4.62117C25.935 4.53787 26.0108 4.44783 26.0788 4.352C26.8835 3.22292 26.756 3.06708 26.6157 2.93958C26.474 2.81208 26.2474 2.54292 25.0035 3.13792L24.6777 3.33625C24.5859 3.41936 24.5054 3.51414 24.4383 3.61817C24.3703 3.72158 23.7455 4.80533 24.0275 5.032C24.3108 5.25867 25.471 4.87617 25.5688 4.8195ZM31.421 10.5726C31.3128 10.5601 31.2035 10.5601 31.0952 10.5726C30.9836 10.5879 30.8742 10.6164 30.7694 10.6576C29.357 11.237 29.5978 11.5898 29.5978 11.6039C29.5978 12.0148 30.7141 12.2967 31.0116 12.3392C31.1391 12.3599 31.2661 12.3599 31.3927 12.3392C31.5168 12.3241 31.637 12.2856 31.7469 12.2258C32.9893 11.645 32.9751 11.3489 32.9184 11.1095C32.8618 10.8701 32.6351 10.6718 31.421 10.5726ZM17.7261 17.4973C17.032 15.8865 16.5659 16.3243 16.1706 17.4973V18.53C16.1678 19.1864 16.2008 19.8409 16.2698 20.4935C16.3548 21.4838 16.5106 22.4443 16.5673 23.4345C16.577 23.5665 16.6363 23.6899 16.7333 23.78C16.8302 23.8701 16.9577 23.9202 17.09 23.9202C17.2224 23.9202 17.3498 23.8701 17.4468 23.78C17.5438 23.6899 17.6031 23.5665 17.6128 23.4345C17.7743 22.4561 17.8871 21.471 17.9514 20.4793V19.2213C17.9386 18.8058 17.9055 18.3912 17.8522 17.9789L17.7261 17.4973Z" fill="#0C6FFF"/>
<path fill-rule="evenodd" clip-rule="evenodd" d="M27.1635 11.8574C26.771 9.77853 25.7901 7.856 24.3372 6.31823C22.8802 4.7208 20.9473 3.63536 18.825 3.22281C16.4556 2.93387 14.0569 3.43004 11.9966 4.63523C9.8972 5.7275 8.18521 7.43999 7.09354 9.53973C6.37142 11.1649 6.0419 12.9373 6.13162 14.7134C6.20134 16.474 6.68576 18.1932 7.54546 19.7312C8.33737 21.1436 9.28371 22.0914 9.96229 23.2786C10.3801 23.9858 10.6541 24.7686 10.7684 25.5821H10.6267C10.5632 25.5786 10.4997 25.588 10.4401 25.6099C10.3804 25.6318 10.3258 25.6656 10.2796 25.7093C10.2335 25.753 10.1967 25.8056 10.1716 25.864C10.1464 25.9224 10.1335 25.9853 10.1335 26.0489C10.1335 26.1124 10.1464 26.1753 10.1716 26.2337C10.1967 26.2921 10.2335 26.3447 10.2796 26.3884C10.3258 26.4321 10.3804 26.4659 10.4401 26.4878C10.4997 26.5097 10.5632 26.5191 10.6267 26.5156H15.8981L19.376 26.6431C19.9975 26.6658 20.6147 26.7362 21.2276 26.8542C21.5251 26.8854 21.8141 26.9761 22.0748 27.1234C22.259 27.2226 22.3865 27.3076 22.429 27.4209C22.4715 27.5342 22.429 27.5328 22.3156 27.6036C22.2223 27.7265 22.1127 27.8362 21.9898 27.9295C21.2068 28.5108 20.287 28.8802 19.3194 29.0019C17.7327 29.2243 16.1205 29.1946 14.541 28.9169C14.0205 28.8182 13.5165 28.647 13.0435 28.4083C12.5532 28.1697 12.0807 27.8961 11.6297 27.5895C11.5757 27.5458 11.5133 27.5136 11.4465 27.4948C11.3796 27.4761 11.3095 27.4712 11.2407 27.4805C11.1718 27.4898 11.1056 27.513 11.0461 27.5488C10.9865 27.5846 10.9349 27.6322 10.8945 27.6886C10.814 27.8004 10.7794 27.9388 10.7978 28.0753C10.8163 28.2118 10.8863 28.3361 10.9936 28.4225C11.5811 28.9013 12.2077 29.3206 12.8735 29.6805C12.9727 29.6805 13.1002 29.7513 13.2135 29.808C13.136 29.8586 13.0764 29.9324 13.0433 30.0189C13.0102 30.1054 13.0054 30.2002 13.0294 30.2896C13.2107 31.1765 13.63 31.9981 14.2449 32.6626C14.9107 33.3496 15.7763 33.8101 16.7184 33.9772C17.7752 34.0848 18.8341 33.7927 19.6863 33.1584C20.1019 32.8424 20.4221 32.4178 20.6116 31.9313C20.8011 31.4448 20.8525 30.9154 20.7601 30.4016C21.5983 30.2228 22.3919 29.8768 23.0934 29.3844C23.7125 28.9721 24.1247 28.312 24.2239 27.5753C24.2317 27.1656 24.1177 26.7628 23.8962 26.418C23.6748 26.0732 23.3559 25.802 22.98 25.6387C22.7746 25.5519 22.561 25.4854 22.3425 25.4404C22.1258 25.3965 22.3425 25.3696 22.3425 25.3129C22.3935 24.6017 22.6372 23.9175 23.0509 23.3352C23.7011 22.345 24.605 21.4836 25.2694 20.5076C26.0586 19.2551 26.6184 17.8721 26.9226 16.4233C27.3082 14.9334 27.3901 13.3811 27.1635 11.8588M19.121 31.6468C18.8195 31.871 18.4722 32.0258 18.1039 32.1001C17.7256 32.171 17.3375 32.171 16.9592 32.1001C16.3292 32.0637 15.7239 31.842 15.2195 31.4626C14.6964 31.0705 14.2707 30.5629 13.9757 29.9794C14.09 30.0351 14.208 30.0823 14.3299 30.1211C16.0384 30.5432 17.8035 30.6906 19.5588 30.5588H19.6438C19.6334 30.7658 19.5818 30.9687 19.492 31.1555C19.4023 31.3423 19.2761 31.5093 19.121 31.6468ZM14.1599 13.9654C14.3582 13.4554 14.5565 12.9596 14.7974 12.4666C14.9093 12.2116 15.0651 11.9707 15.1926 11.7299C15.4627 11.8838 15.7451 12.0113 16.0398 12.1124C16.2532 12.1691 16.4705 12.1974 16.6915 12.1974C16.9143 12.2012 17.1353 12.1776 17.3545 12.1266C17.7554 12.0161 18.1365 11.8432 18.485 11.618C18.8958 12.4099 19.2769 13.2004 19.6721 13.9923C19.0644 13.9073 18.4708 13.8223 17.863 13.7656H15.8981C15.262 13.8081 14.6968 13.8946 14.1599 13.9654ZM15.8698 10.4861C16.139 9.99023 16.394 9.49581 16.6631 9.07223L16.8459 8.47865C16.9734 8.79031 17.0867 9.10198 17.1434 9.2139C17.397 9.62473 17.6095 10.0483 17.8489 10.4577H17.1561C16.887 10.4436 16.6187 10.4436 16.3515 10.4577C16.1762 10.4509 16.0008 10.4604 15.8273 10.4861H15.8698ZM19.5305 25.0721L16.0115 25.2421L14.5976 25.3271V20.3517C14.5976 19.7851 14.5976 19.2354 14.4985 18.6687C14.3851 17.4674 14.2307 16.2944 14.1174 15.1072C15.8338 15.6156 17.6559 15.6499 19.3902 15.2064C19.206 16.4106 19.1069 17.6213 19.0927 18.8387C19.0927 19.6306 19.1777 20.4226 19.2485 21.1989C19.3619 22.3719 19.5602 23.5307 19.6169 24.7051C19.6112 24.7729 19.6209 24.8411 19.6452 24.9046C19.6695 24.9681 19.7077 25.0253 19.7571 25.0721H19.5305ZM25.6363 16.0408C25.3925 17.3502 24.914 18.6048 24.2239 19.744C23.4872 20.9595 22.3865 21.9908 21.7787 23.2488C21.4982 23.8282 21.3395 24.4572 21.3112 25.1004C21.0479 25.0857 20.784 25.0857 20.5207 25.1004C20.6138 25.0109 20.6695 24.8894 20.6765 24.7604C20.8607 23.4297 20.9547 22.0919 20.9585 20.747C20.9585 19.9551 20.9585 19.1646 20.8168 18.3726C20.5839 15.8431 20.1874 13.3313 19.6296 10.853C19.3074 10.0456 18.9587 9.24897 18.5841 8.46448C18.3181 7.86123 17.9966 7.28404 17.6236 6.74039C17.4166 6.47244 17.136 6.2706 16.8161 6.15956C16.5915 6.13075 16.3635 6.17255 16.1637 6.27916C15.9639 6.38578 15.8023 6.55193 15.7012 6.75456C15.4887 7.1654 15.007 8.25339 14.9929 8.28031C14.4999 9.49581 13.9615 10.7255 13.5805 11.9976C12.7744 14.3436 13.0435 13.2981 12.8735 18.7268V20.4495C12.8735 21.0303 12.9444 21.5814 13.001 22.1466C13.1285 23.2488 13.2985 24.3368 13.4544 25.4248L11.7855 25.5381C11.6815 24.5783 11.3934 23.6476 10.937 22.7969C10.3009 21.5814 9.39704 20.5345 8.66179 19.1504C7.94932 17.7685 7.57177 16.2384 7.55962 14.6836C7.53699 13.1501 7.88086 11.6333 8.56262 10.2594C9.49874 8.48257 10.9594 7.03721 12.746 6.1199C14.4584 5.13977 16.4412 4.73832 18.4 4.97523C20.1834 5.29524 21.8179 6.17677 23.065 7.49123C24.358 8.76523 25.2684 10.3759 25.693 12.1407C25.9218 13.433 25.9026 14.7571 25.6363 16.0422" fill="white"/>
</svg>
