<svg width="34" height="34" viewBox="0 0 34 34" fill="none" xmlns="http://www.w3.org/2000/svg">
<path d="M17.0026 25.8543C21.8926 25.8543 25.8568 21.8902 25.8568 17.0002C25.8568 12.1101 21.8926 8.146 17.0026 8.146C12.1126 8.146 8.14844 12.1101 8.14844 17.0002C8.14844 21.8902 12.1126 25.8543 17.0026 25.8543Z" stroke="white" stroke-width="0.5" stroke-linecap="round" stroke-linejoin="round"/>
<path d="M13.5704 2.1626L8.93573 4.08218L9.8764 7.55089C8.9982 8.2144 8.2163 8.99653 7.55306 9.87493L4.08435 8.93426L2.16406 13.5689L5.25452 15.3411C5.17613 15.8913 5.13694 16.4443 5.13694 17.0001C5.13694 17.5554 5.17613 18.1084 5.25452 18.659L2.16406 20.4312L4.08365 25.0658L7.55235 24.1252C8.21586 25.0034 8.998 25.7853 9.8764 26.4485L8.93573 29.9172L13.5704 31.8375L15.3426 28.7471C15.8927 28.825 16.4457 28.8642 17.0015 28.8646C17.5569 28.8646 18.1098 28.8254 18.6604 28.7471L20.4327 31.8375L25.0673 29.9179L24.1266 26.4492C25.0048 25.7857 25.7867 25.0036 26.45 24.1252L29.9187 25.0658L31.839 20.4312L28.7485 18.659C28.8264 18.1084 28.8656 17.5554 28.8661 17.0001C28.8647 16.445 28.825 15.8907 28.7471 15.3411L31.839 13.5689L29.9194 8.93426L26.4797 9.86714C25.8114 8.98003 25.0223 8.19084 24.1351 7.52256L25.0673 4.08289L20.4327 2.1626L18.6604 5.25447C18.1109 5.17662 17.5566 5.13686 17.0015 5.13547C16.4457 5.13547 15.8927 5.17467 15.3426 5.25306L13.5704 2.1626Z" stroke="white" stroke-width="0.5" stroke-linecap="round" stroke-linejoin="round"/>
<path d="M13.9535 14.4448L12.2138 12.0053M19.5543 20.0463L21.9938 21.7853M13.2813 11.0483L15.1619 13.5998C12.9484 15.0334 12.4065 15.4322 15.4863 18.5128C18.5676 21.5933 18.9657 21.0507 20.3993 18.8379L22.9507 20.7178C19.2185 25.6903 15.2427 20.97 14.1355 19.8635C13.0291 18.7564 8.30879 14.7805 13.2813 11.0483Z" stroke="white" stroke-width="0.5" stroke-linecap="round" stroke-linejoin="round"/>
</svg>
