<svg width="33" height="33" viewBox="0 0 33 33" fill="none" xmlns="http://www.w3.org/2000/svg">
<path d="M16.5011 29.0716C23.4441 29.0716 29.0725 23.4431 29.0725 16.5001C29.0725 9.55713 23.4441 3.92871 16.5011 3.92871C9.55811 3.92871 3.92969 9.55713 3.92969 16.5001C3.92969 23.4431 9.55811 29.0716 16.5011 29.0716Z" stroke="white" stroke-linecap="round" stroke-linejoin="round"/>
<path d="M16.5045 22.7858C19.976 22.7858 22.7902 19.9716 22.7902 16.5001C22.7902 13.0286 19.976 10.2144 16.5045 10.2144C13.033 10.2144 10.2188 13.0286 10.2188 16.5001C10.2188 19.9716 13.033 22.7858 16.5045 22.7858Z" stroke="white" stroke-linecap="round" stroke-linejoin="round"/>
<path d="M21.2165 11.786L25.1451 7.85742M21.2165 21.2146L25.1451 25.1431M11.7879 21.2146L7.85938 25.1431M11.7879 11.786L7.85938 7.85742" stroke="white" stroke-linecap="round" stroke-linejoin="round"/>
</svg>
