<svg width="34" height="34" viewBox="0 0 34 34" fill="none" xmlns="http://www.w3.org/2000/svg">
<path d="M16.9973 8.5001C12.1682 8.5001 7.79606 10.4126 4.582 13.5257C3.90731 14.1792 2.82887 14.1632 2.18075 13.4885C1.53262 12.8138 1.54325 11.7354 2.21794 11.0873C6.03762 7.37916 11.2545 5.1001 16.9973 5.1001C22.7401 5.1001 27.957 7.37916 31.782 11.0873C32.4567 11.7407 32.4726 12.8192 31.8192 13.4885C31.1657 14.1579 30.0873 14.1792 29.4179 13.5257C26.1986 10.4126 21.8264 8.5001 16.9973 8.5001ZM14.4473 26.3501C14.4473 24.9423 15.5895 23.8001 16.9973 23.8001C18.4051 23.8001 19.5473 24.9423 19.5473 26.3501C19.5473 27.7579 18.4051 28.9001 16.9973 28.9001C15.5895 28.9001 14.4473 27.7579 14.4473 26.3501ZM10.6223 20.7295C10.0007 21.436 8.92762 21.4998 8.22106 20.8782C7.5145 20.2567 7.45075 19.1835 8.07231 18.477C10.2504 16.012 13.4432 14.4501 16.9973 14.4501C20.5514 14.4501 23.7442 16.012 25.9223 18.477C26.5439 19.1835 26.4748 20.2567 25.7736 20.8782C25.0723 21.4998 23.9939 21.4307 23.3723 20.7295C21.8104 18.9604 19.5367 17.8501 16.9973 17.8501C14.4579 17.8501 12.1842 18.9604 10.6223 20.7295Z" fill="white"/>
</svg>
