<svg width="35" height="36" viewBox="0 0 35 36" fill="none" xmlns="http://www.w3.org/2000/svg">
<path d="M25.0909 19.8701C25.2356 16.0711 25.9434 13.0854 27.2118 10.9127C28.4826 8.74007 30.4127 7.14911 33 6.14429L29.9117 1.25464C25.5321 3.12761 22.3083 5.91292 20.238 9.61033C18.7468 12.3053 18 16.7123 18 22.8314V34.2546H31.8235V19.8701H25.0909Z" stroke="#660033" stroke-width="2" stroke-miterlimit="10"/>
<path d="M8.09092 19.8701C8.23563 16.0711 8.94342 13.0854 10.2118 10.9127C11.4826 8.74007 13.4127 7.14911 16 6.14429L12.9117 1.25464C8.53214 3.12761 5.3083 5.91292 3.23799 9.61033C1.74677 12.3053 1 16.7123 1 22.8314V34.2546H14.8235V19.8701H8.09092Z" stroke="#660033" stroke-width="2" stroke-miterlimit="10"/>
</svg>
