<svg width="65" height="60" viewBox="0 0 65 60" fill="none" xmlns="http://www.w3.org/2000/svg">
<path d="M39.2924 0C37.2758 0.0249835 35.6679 1.54898 35.6952 3.39776C35.7061 3.96739 35.875 4.53201 36.1857 5.02669L39.3524 10.0534V10.0484L54.7171 34.4423H61.0504C62.2931 34.4423 63.4486 35.0169 64.119 35.9713L42.5245 1.68889C42.5354 1.70388 42.5409 1.72386 42.5518 1.73885C42.5409 1.71887 42.53 1.69888 42.5136 1.6739C41.8705 0.654569 40.6932 0.0149901 39.4069 0H39.2924Z" fill="url(#paint0_linear_476_2664)"/>
<path d="M18.6594 10.6228C17.2641 10.6278 15.9941 11.3523 15.3837 12.5015L0.591309 35.9711C1.26171 35.0167 2.41719 34.4421 3.65989 34.4421H9.9878L18.6703 20.6712V20.6662L21.7879 15.7144C22.8399 14.1355 22.3003 12.0768 20.5834 11.1125C20.0056 10.7877 19.3407 10.6178 18.6594 10.6228Z" fill="url(#paint1_linear_476_2664)"/>
<path d="M54.7235 34.4424H35.7943H35.7888L36.7536 35.9664C37.8545 37.5154 37.3749 39.589 35.6853 40.5983C35.0912 40.9531 34.399 41.143 33.6904 41.138H61.0515C63.0681 41.138 64.7032 39.639 64.7032 37.7902C64.7032 35.9414 63.0681 34.4424 61.0515 34.4424H54.7235Z" fill="url(#paint2_linear_476_2664)"/>
<path d="M9.9906 34.4424H3.66268C1.64604 34.4374 0.00546404 35.9314 1.36318e-05 37.7802C-0.00543677 39.629 1.62423 41.133 3.64088 41.138H17.6484C15.6318 41.138 13.9966 39.644 13.9912 37.7952C13.9912 37.1506 14.1929 36.516 14.5798 35.9714L15.5337 34.4424H9.9906Z" fill="url(#paint3_linear_476_2664)"/>
<path d="M25.667 18.3827L21.4484 25.0783L15.551 34.4421H15.5401L14.5863 35.9761C13.5344 37.5551 14.074 39.6137 15.7908 40.5781C17.5132 41.5424 19.7587 41.0478 20.8107 39.4738C20.827 39.4438 20.8488 39.4188 20.8652 39.3889L20.8706 39.3739L25.6615 31.7739L29.8801 25.0733L39.3529 10.0432L36.2789 5.15643C35.5431 4.10713 35.5104 2.76801 36.1808 1.68872L25.667 18.3827Z" fill="url(#paint4_linear_476_2664)"/>
<path d="M22.3227 13.9808C22.3227 14.6204 22.1211 15.25 21.7396 15.7896L18.6655 20.6714L21.4452 25.0785L25.6638 31.7741L30.4602 39.389C31.0979 40.4683 32.3297 41.1429 33.6705 41.1429C35.6871 41.1429 37.3386 39.6439 37.3386 37.7951C37.3386 37.1505 37.1315 36.5159 36.75 35.9763L35.7852 34.4423L29.8825 25.0735L25.6638 18.3779L21.8431 12.3169C22.1592 12.8216 22.3227 13.3962 22.3227 13.9808Z" fill="url(#paint5_linear_476_2664)"/>
<path fill-rule="evenodd" clip-rule="evenodd" d="M17.3406 45.3447H12.468V47.978H17.3079C18.3435 47.978 19.1829 48.7475 19.1829 49.6969V51.3957H13.3237C10.7348 51.4207 8.6527 53.3694 8.67995 55.7429C8.7072 58.0813 10.7675 59.9751 13.3237 60.0001H21.6846C21.8754 60.0001 22.028 59.8602 22.028 59.6853V49.6469C22.0334 47.2735 19.9296 45.3447 17.3406 45.3447ZM19.1829 57.087C19.1829 57.2619 19.0303 57.4018 18.8395 57.4018H13.3837C12.3481 57.4018 11.5087 56.6323 11.5087 55.6829C11.5087 54.7335 12.3481 53.964 13.3837 53.964H19.1829V57.087Z" fill="#073E61"/>
<path fill-rule="evenodd" clip-rule="evenodd" d="M10.7817 47.978V45.3447H4.70452C2.11012 45.3447 0.0117188 47.2735 0.0117188 49.6469V59.6803C0.0117188 59.8552 0.16433 59.9951 0.355094 59.9951H2.86228V49.6919C2.86228 48.7425 3.70164 47.973 4.73722 47.973L10.7817 47.978Z" fill="#073E61"/>
<path fill-rule="evenodd" clip-rule="evenodd" d="M64.702 45.3502H51.2886V47.6487C51.2886 47.8236 51.4412 47.9635 51.6319 47.9635H60.805L51.2995 57.3823L51.294 59.9956H64.3641C64.5549 59.9956 64.7075 59.8557 64.7075 59.6808V57.3823H55.2074L64.702 47.9635V45.3502Z" fill="#073E61"/>
<path fill-rule="evenodd" clip-rule="evenodd" d="M44.9172 53.9491C47.5061 53.9491 49.61 52.0253 49.61 49.6469C49.61 47.2685 47.5116 45.3447 44.9172 45.3447H40.9057C38.3167 45.3447 36.2129 47.2685 36.2129 49.6469V55.6929C36.2129 58.0663 38.3113 59.9951 40.9057 59.9951H49.61V57.3618H40.9384C39.9028 57.3618 39.0635 56.5923 39.0635 55.6429V53.9441L44.9172 53.9491ZM39.0635 51.3808V49.6619C39.0635 48.7125 39.9028 47.943 40.9384 47.943H44.8627C45.8983 47.943 46.7376 48.7125 46.7376 49.6619C46.7376 50.6113 45.8983 51.3758 44.8627 51.3808H39.0635Z" fill="#073E61"/>
<path fill-rule="evenodd" clip-rule="evenodd" d="M31.8638 45.3447L26.5606 50.5963V45.6595C26.5606 45.4846 26.408 45.3447 26.2172 45.3447H23.7046V59.6803C23.7046 59.8552 23.8572 59.9951 24.048 59.9951H26.5552V54.7485L31.842 59.9951H35.75L28.3592 52.6749L35.7554 45.3447H31.8638Z" fill="#073E61"/>
<defs>
<linearGradient id="paint0_linear_476_2664" x1="37.5247" y1="0.445826" x2="58.0335" y2="39.1936" gradientUnits="userSpaceOnUse">
<stop stop-color="#8DD3D3"/>
<stop offset="1" stop-color="#00B3AE"/>
</linearGradient>
<linearGradient id="paint1_linear_476_2664" x1="20.4978" y1="11.0665" x2="5.8442" y2="38.7516" gradientUnits="userSpaceOnUse">
<stop stop-color="#86D3E6"/>
<stop offset="1" stop-color="#00ADE5"/>
</linearGradient>
<linearGradient id="paint2_linear_476_2664" x1="64.704" y1="37.7904" x2="33.6899" y2="37.7904" gradientUnits="userSpaceOnUse">
<stop stop-color="#8DD3D3"/>
<stop offset="1" stop-color="#00B3AE"/>
</linearGradient>
<linearGradient id="paint3_linear_476_2664" x1="0.00218289" y1="37.7879" x2="17.6528" y2="37.7879" gradientUnits="userSpaceOnUse">
<stop stop-color="#86D3E6"/>
<stop offset="1" stop-color="#00ADE5"/>
</linearGradient>
<linearGradient id="paint4_linear_476_2664" x1="15.8285" y1="40.6908" x2="36.4096" y2="1.80692" gradientUnits="userSpaceOnUse">
<stop stop-color="#8DD3D3"/>
<stop offset="1" stop-color="#00B3AE"/>
</linearGradient>
<linearGradient id="paint5_linear_476_2664" x1="35.5032" y1="40.6944" x2="20.7812" y2="12.8803" gradientUnits="userSpaceOnUse">
<stop stop-color="#86D3E6"/>
<stop offset="1" stop-color="#00ADE5"/>
</linearGradient>
</defs>
</svg>
